<?xml version="1.0" encoding="UTF-8" standalone="no"?>
<!-- Created with Inkscape (http://www.inkscape.org/) -->
<svg
   xmlns:svg="http://www.w3.org/2000/svg"
   xmlns="http://www.w3.org/2000/svg"
   version="1.0"
   width="74.900002"
   height="74.900002"
   viewBox="0 0 74.9 74.9"
   id="svg2100"
   xml:space="preserve"><defs
   id="defs2114" />
	
		<g
   id="Layer_1">
			<rect
   width="74.900002"
   height="74.900002"
   x="0"
   y="0"
   style="fill:none"
   id="rect2105" /> 
			<circle
   cx="36.972"
   cy="37.450001"
   r="28.563"
   style="fill:#e30f00"
   id="circle2107" /> 
			<g
   id="g2109">
				<path
   d="M 27.877,32.423 C 27.877,23.183 34.637,22.383 37.157,22.383 C 42.596,22.383 46.917,25.583 46.917,31.343 C 46.917,36.223 43.757,38.703 40.997,40.583 C 37.237,43.224 35.277,44.503 34.637,45.823 L 46.957,45.823 L 46.957,50.783 L 27.557,50.783 C 27.757,47.463 27.997,43.983 34.157,39.503 C 39.277,35.783 41.317,34.343 41.317,31.143 C 41.317,29.263 40.117,27.103 37.397,27.103 C 33.477,27.103 33.357,30.343 33.317,32.423 L 27.877,32.423 L 27.877,32.423 z "
   style="fill:white"
   id="path2111" />
			</g>
		</g>
	</svg>