<svg xmlns="http://www.w3.org/2000/svg" viewBox="0 0 16 16" shape-rendering="crispEdges" width="16" height="16" role="img" aria-label="NiDB pixel squirrel">
<rect x="9" y="0" width="1" height="1" fill="#775745"/>
<rect x="10" y="0" width="1" height="1" fill="#7B5844"/>
<rect x="11" y="0" width="1" height="1" fill="#775745"/>
<rect x="12" y="0" width="1" height="1" fill="#7B5844"/>
<rect x="13" y="0" width="1" height="1" fill="#775745"/>
<rect x="8" y="1" width="1" height="1" fill="#775745"/>
<rect x="9" y="1" width="5" height="1" fill="#7B5844"/>
<rect x="14" y="1" width="1" height="1" fill="#775745"/>
<rect x="8" y="2" width="4" height="1" fill="#7B5844"/>
<rect x="12" y="2" width="1" height="1" fill="#775745"/>
<rect x="13" y="2" width="2" height="1" fill="#7B5844"/>
<rect x="15" y="2" width="1" height="1" fill="#775745"/>
<rect x="3" y="3" width="2" height="1" fill="#E7CD82"/>
<rect x="7" y="3" width="1" height="1" fill="#967449"/>
<rect x="8" y="3" width="1" height="1" fill="#BF9955"/>
<rect x="9" y="3" width="1" height="1" fill="#775745"/>
<rect x="10" y="3" width="1" height="1" fill="#7B5844"/>
<rect x="11" y="3" width="2" height="1" fill="#6C4D3E"/>
<rect x="13" y="3" width="2" height="1" fill="#7B5844"/>
<rect x="15" y="3" width="1" height="1" fill="#775745"/>
<rect x="3" y="4" width="2" height="1" fill="#C9A761"/>
<rect x="5" y="4" width="1" height="1" fill="#BF9955"/>
<rect x="6" y="4" width="1" height="1" fill="#C9A761"/>
<rect x="7" y="4" width="1" height="1" fill="#E7CD82"/>
<rect x="8" y="4" width="1" height="1" fill="#BF9955"/>
<rect x="9" y="4" width="1" height="1" fill="#6C4D3E"/>
<rect x="10" y="4" width="1" height="1" fill="#7B5844"/>
<rect x="11" y="4" width="4" height="1" fill="#6C4D3E"/>
<rect x="15" y="4" width="1" height="1" fill="#775745"/>
<rect x="3" y="5" width="1" height="1" fill="#775745"/>
<rect x="4" y="5" width="1" height="1" fill="#967449"/>
<rect x="5" y="5" width="1" height="1" fill="#BF9955"/>
<rect x="6" y="5" width="1" height="1" fill="#7B5844"/>
<rect x="7" y="5" width="1" height="1" fill="#BF9955"/>
<rect x="8" y="5" width="1" height="1" fill="#7B5844"/>
<rect x="9" y="5" width="1" height="1" fill="#775745"/>
<rect x="10" y="5" width="1" height="1" fill="#7B5844"/>
<rect x="11" y="5" width="4" height="1" fill="#6C4D3E"/>
<rect x="15" y="5" width="1" height="1" fill="#775745"/>
<rect x="3" y="6" width="1" height="1" fill="#1A1210"/>
<rect x="4" y="6" width="1" height="1" fill="#C9A761"/>
<rect x="5" y="6" width="1" height="1" fill="#1A1210"/>
<rect x="6" y="6" width="1" height="1" fill="#C9A761"/>
<rect x="7" y="6" width="1" height="1" fill="#BF9955"/>
<rect x="8" y="6" width="1" height="1" fill="#967449"/>
<rect x="9" y="6" width="1" height="1" fill="#775745"/>
<rect x="10" y="6" width="2" height="1" fill="#7B5844"/>
<rect x="14" y="6" width="1" height="1" fill="#6C4D3E"/>
<rect x="2" y="7" width="1" height="1" fill="#C9A761"/>
<rect x="3" y="7" width="4" height="1" fill="#E7CD82"/>
<rect x="7" y="7" width="1" height="1" fill="#C9A761"/>
<rect x="8" y="7" width="1" height="1" fill="#967449"/>
<rect x="9" y="7" width="3" height="1" fill="#7B5844"/>
<rect x="12" y="7" width="1" height="1" fill="#6C4D3E"/>
<rect x="0" y="8" width="3" height="1" fill="#6B4A2F"/>
<rect x="3" y="8" width="1" height="1" fill="#BF9955"/>
<rect x="4" y="8" width="2" height="1" fill="#E7CD82"/>
<rect x="6" y="8" width="2" height="1" fill="#C9A761"/>
<rect x="9" y="8" width="1" height="1" fill="#775745"/>
<rect x="10" y="8" width="1" height="1" fill="#7B5844"/>
<rect x="11" y="8" width="2" height="1" fill="#775745"/>
<rect x="0" y="9" width="1" height="1" fill="#E9C96A"/>
<rect x="1" y="9" width="1" height="1" fill="#F5DE96"/>
<rect x="2" y="9" width="1" height="1" fill="#E9C96A"/>
<rect x="3" y="9" width="1" height="1" fill="#967449"/>
<rect x="4" y="9" width="2" height="1" fill="#C9A761"/>
<rect x="6" y="9" width="2" height="1" fill="#BF9955"/>
<rect x="10" y="9" width="1" height="1" fill="#775745"/>
<rect x="11" y="9" width="1" height="1" fill="#7B5844"/>
<rect x="12" y="9" width="1" height="1" fill="#775745"/>
<rect x="13" y="9" width="1" height="1" fill="#6C4D3E"/>
<rect x="0" y="10" width="3" height="1" fill="#E9C96A"/>
<rect x="3" y="10" width="7" height="1" fill="#BF9955"/>
<rect x="10" y="10" width="2" height="1" fill="#7B5844"/>
<rect x="12" y="10" width="2" height="1" fill="#6C4D3E"/>
<rect x="0" y="11" width="1" height="1" fill="#E7CD82"/>
<rect x="1" y="11" width="1" height="1" fill="#E9C96A"/>
<rect x="2" y="11" width="1" height="1" fill="#C9A761"/>
<rect x="3" y="11" width="1" height="1" fill="#BF9955"/>
<rect x="4" y="11" width="2" height="1" fill="#E7CD82"/>
<rect x="6" y="11" width="4" height="1" fill="#BF9955"/>
<rect x="10" y="11" width="1" height="1" fill="#967449"/>
<rect x="11" y="11" width="2" height="1" fill="#775745"/>
<rect x="13" y="11" width="1" height="1" fill="#6C4D3E"/>
<rect x="1" y="12" width="1" height="1" fill="#C9A761"/>
<rect x="3" y="12" width="1" height="1" fill="#967449"/>
<rect x="4" y="12" width="2" height="1" fill="#E7CD82"/>
<rect x="6" y="12" width="4" height="1" fill="#BF9955"/>
<rect x="10" y="12" width="1" height="1" fill="#967449"/>
<rect x="11" y="12" width="1" height="1" fill="#775745"/>
<rect x="12" y="12" width="1" height="1" fill="#7B5844"/>
<rect x="13" y="12" width="1" height="1" fill="#6C4D3E"/>
<rect x="3" y="13" width="1" height="1" fill="#967449"/>
<rect x="4" y="13" width="1" height="1" fill="#C9A761"/>
<rect x="5" y="13" width="1" height="1" fill="#E7CD82"/>
<rect x="6" y="13" width="3" height="1" fill="#BF9955"/>
<rect x="9" y="13" width="1" height="1" fill="#C9A761"/>
<rect x="10" y="13" width="1" height="1" fill="#967449"/>
<rect x="11" y="13" width="2" height="1" fill="#6C4D3E"/>
<rect x="2" y="14" width="2" height="1" fill="#BF9955"/>
<rect x="4" y="14" width="1" height="1" fill="#967449"/>
<rect x="5" y="14" width="1" height="1" fill="#C9A761"/>
<rect x="6" y="14" width="3" height="1" fill="#BF9955"/>
<rect x="9" y="14" width="1" height="1" fill="#C9A761"/>
<rect x="10" y="14" width="1" height="1" fill="#BF9955"/>
<rect x="3" y="15" width="6" height="1" fill="#BF9955"/>
<rect x="9" y="15" width="1" height="1" fill="#C9A761"/>
</svg>
