<svg xmlns="http://www.w3.org/2000/svg" viewBox="0 0 24 24" shape-rendering="crispEdges" width="24" height="24" role="img" aria-label="NiDB pixel squirrel">
<rect x="15" y="0" width="5" height="1" fill="#775644"/>
<rect x="13" y="1" width="1" height="1" fill="#775644"/>
<rect x="14" y="1" width="2" height="1" fill="#7D5B46"/>
<rect x="16" y="1" width="3" height="1" fill="#7B5844"/>
<rect x="19" y="1" width="1" height="1" fill="#7D5B46"/>
<rect x="20" y="1" width="1" height="1" fill="#7B5844"/>
<rect x="21" y="1" width="1" height="1" fill="#775644"/>
<rect x="12" y="2" width="1" height="1" fill="#775644"/>
<rect x="13" y="2" width="1" height="1" fill="#7D5B46"/>
<rect x="14" y="2" width="7" height="1" fill="#7B5844"/>
<rect x="21" y="2" width="1" height="1" fill="#7D5B46"/>
<rect x="12" y="3" width="1" height="1" fill="#7D5B46"/>
<rect x="13" y="3" width="10" height="1" fill="#7B5844"/>
<rect x="5" y="4" width="1" height="1" fill="#EAD28B"/>
<rect x="11" y="4" width="1" height="1" fill="#6B4C3E"/>
<rect x="12" y="4" width="5" height="1" fill="#7B5844"/>
<rect x="17" y="4" width="1" height="1" fill="#775644"/>
<rect x="18" y="4" width="1" height="1" fill="#6B4C3E"/>
<rect x="19" y="4" width="1" height="1" fill="#775644"/>
<rect x="20" y="4" width="1" height="1" fill="#7B5844"/>
<rect x="21" y="4" width="1" height="1" fill="#775644"/>
<rect x="22" y="4" width="1" height="1" fill="#7D5B46"/>
<rect x="23" y="4" width="1" height="1" fill="#775644"/>
<rect x="5" y="5" width="2" height="1" fill="#EAD28B"/>
<rect x="7" y="5" width="2" height="1" fill="#A58348"/>
<rect x="9" y="5" width="1" height="1" fill="#BA9552"/>
<rect x="11" y="5" width="1" height="1" fill="#A58348"/>
<rect x="12" y="5" width="1" height="1" fill="#EAD28B"/>
<rect x="13" y="5" width="1" height="1" fill="#7D5B46"/>
<rect x="14" y="5" width="1" height="1" fill="#775644"/>
<rect x="15" y="5" width="1" height="1" fill="#7D5B46"/>
<rect x="16" y="5" width="1" height="1" fill="#775644"/>
<rect x="17" y="5" width="2" height="1" fill="#6B4C3E"/>
<rect x="19" y="5" width="1" height="1" fill="#775644"/>
<rect x="20" y="5" width="3" height="1" fill="#7B5844"/>
<rect x="23" y="5" width="1" height="1" fill="#775644"/>
<rect x="5" y="6" width="2" height="1" fill="#EAD28B"/>
<rect x="7" y="6" width="1" height="1" fill="#A58348"/>
<rect x="8" y="6" width="3" height="1" fill="#BA9552"/>
<rect x="11" y="6" width="2" height="1" fill="#EAD28B"/>
<rect x="13" y="6" width="1" height="1" fill="#775644"/>
<rect x="14" y="6" width="2" height="1" fill="#7B5844"/>
<rect x="16" y="6" width="1" height="1" fill="#775644"/>
<rect x="17" y="6" width="5" height="1" fill="#6B4C3E"/>
<rect x="22" y="6" width="1" height="1" fill="#7B5844"/>
<rect x="23" y="6" width="1" height="1" fill="#775644"/>
<rect x="5" y="7" width="1" height="1" fill="#A58348"/>
<rect x="6" y="7" width="2" height="1" fill="#BA9552"/>
<rect x="8" y="7" width="1" height="1" fill="#C29C58"/>
<rect x="9" y="7" width="3" height="1" fill="#CBA85C"/>
<rect x="12" y="7" width="1" height="1" fill="#7D5B46"/>
<rect x="13" y="7" width="1" height="1" fill="#775644"/>
<rect x="14" y="7" width="2" height="1" fill="#7B5844"/>
<rect x="16" y="7" width="1" height="1" fill="#775644"/>
<rect x="17" y="7" width="5" height="1" fill="#6B4C3E"/>
<rect x="22" y="7" width="2" height="1" fill="#775644"/>
<rect x="5" y="8" width="1" height="1" fill="#6B4C3E"/>
<rect x="6" y="8" width="1" height="1" fill="#7D5B46"/>
<rect x="7" y="8" width="1" height="1" fill="#CBA85C"/>
<rect x="8" y="8" width="1" height="1" fill="#C29C58"/>
<rect x="9" y="8" width="1" height="1" fill="#6B4C3E"/>
<rect x="10" y="8" width="1" height="1" fill="#A58348"/>
<rect x="11" y="8" width="1" height="1" fill="#BA9552"/>
<rect x="12" y="8" width="1" height="1" fill="#7D5B46"/>
<rect x="13" y="8" width="1" height="1" fill="#775644"/>
<rect x="14" y="8" width="2" height="1" fill="#7B5844"/>
<rect x="16" y="8" width="1" height="1" fill="#775644"/>
<rect x="17" y="8" width="6" height="1" fill="#6B4C3E"/>
<rect x="4" y="9" width="1" height="1" fill="#EAD28B"/>
<rect x="5" y="9" width="1" height="1" fill="#CBA85C"/>
<rect x="6" y="9" width="1" height="1" fill="#BA9552"/>
<rect x="7" y="9" width="2" height="1" fill="#CBA85C"/>
<rect x="9" y="9" width="1" height="1" fill="#A58348"/>
<rect x="10" y="9" width="1" height="1" fill="#BA9552"/>
<rect x="11" y="9" width="1" height="1" fill="#C29C58"/>
<rect x="12" y="9" width="1" height="1" fill="#A58348"/>
<rect x="13" y="9" width="1" height="1" fill="#775644"/>
<rect x="14" y="9" width="3" height="1" fill="#7B5844"/>
<rect x="17" y="9" width="1" height="1" fill="#775644"/>
<rect x="18" y="9" width="1" height="1" fill="#6B4C3E"/>
<rect x="20" y="9" width="2" height="1" fill="#6B4C3E"/>
<rect x="22" y="9" width="1" height="1" fill="#775644"/>
<rect x="4" y="10" width="2" height="1" fill="#EAD28B"/>
<rect x="6" y="10" width="1" height="1" fill="#CBA85C"/>
<rect x="7" y="10" width="4" height="1" fill="#EAD28B"/>
<rect x="11" y="10" width="1" height="1" fill="#C29C58"/>
<rect x="12" y="10" width="1" height="1" fill="#A58348"/>
<rect x="13" y="10" width="4" height="1" fill="#7B5844"/>
<rect x="17" y="10" width="1" height="1" fill="#775644"/>
<rect x="18" y="10" width="1" height="1" fill="#6B4C3E"/>
<rect x="20" y="10" width="2" height="1" fill="#6B4C3E"/>
<rect x="4" y="11" width="1" height="1" fill="#CBA85C"/>
<rect x="5" y="11" width="6" height="1" fill="#EAD28B"/>
<rect x="11" y="11" width="1" height="1" fill="#CBA85C"/>
<rect x="12" y="11" width="1" height="1" fill="#A58348"/>
<rect x="13" y="11" width="1" height="1" fill="#7D5B46"/>
<rect x="14" y="11" width="3" height="1" fill="#7B5844"/>
<rect x="17" y="11" width="2" height="1" fill="#775644"/>
<rect x="2" y="12" width="2" height="1" fill="#C29C58"/>
<rect x="4" y="12" width="1" height="1" fill="#A58348"/>
<rect x="5" y="12" width="1" height="1" fill="#CBA85C"/>
<rect x="6" y="12" width="4" height="1" fill="#EAD28B"/>
<rect x="10" y="12" width="1" height="1" fill="#CBA85C"/>
<rect x="11" y="12" width="1" height="1" fill="#C29C58"/>
<rect x="13" y="12" width="1" height="1" fill="#775644"/>
<rect x="14" y="12" width="1" height="1" fill="#7D5B46"/>
<rect x="15" y="12" width="2" height="1" fill="#7B5844"/>
<rect x="17" y="12" width="1" height="1" fill="#775644"/>
<rect x="18" y="12" width="2" height="1" fill="#6B4C3E"/>
<rect x="1" y="13" width="1" height="1" fill="#C29C58"/>
<rect x="2" y="13" width="1" height="1" fill="#BA9552"/>
<rect x="3" y="13" width="2" height="1" fill="#A58348"/>
<rect x="5" y="13" width="1" height="1" fill="#7D5B46"/>
<rect x="6" y="13" width="1" height="1" fill="#C29C58"/>
<rect x="7" y="13" width="1" height="1" fill="#EAD28B"/>
<rect x="8" y="13" width="1" height="1" fill="#C29C58"/>
<rect x="9" y="13" width="1" height="1" fill="#BA9552"/>
<rect x="10" y="13" width="1" height="1" fill="#C29C58"/>
<rect x="11" y="13" width="1" height="1" fill="#BA9552"/>
<rect x="14" y="13" width="1" height="1" fill="#775644"/>
<rect x="15" y="13" width="1" height="1" fill="#7D5B46"/>
<rect x="16" y="13" width="1" height="1" fill="#7B5844"/>
<rect x="17" y="13" width="1" height="1" fill="#775644"/>
<rect x="18" y="13" width="1" height="1" fill="#6B4C3E"/>
<rect x="19" y="13" width="1" height="1" fill="#775644"/>
<rect x="0" y="14" width="1" height="1" fill="#A58348"/>
<rect x="1" y="14" width="1" height="1" fill="#BA9552"/>
<rect x="2" y="14" width="3" height="1" fill="#A58348"/>
<rect x="5" y="14" width="1" height="1" fill="#BA9552"/>
<rect x="6" y="14" width="1" height="1" fill="#C29C58"/>
<rect x="7" y="14" width="1" height="1" fill="#CBA85C"/>
<rect x="8" y="14" width="3" height="1" fill="#C29C58"/>
<rect x="11" y="14" width="2" height="1" fill="#BA9552"/>
<rect x="15" y="14" width="1" height="1" fill="#775644"/>
<rect x="16" y="14" width="1" height="1" fill="#7D5B46"/>
<rect x="17" y="14" width="1" height="1" fill="#775644"/>
<rect x="18" y="14" width="1" height="1" fill="#6B4C3E"/>
<rect x="19" y="14" width="1" height="1" fill="#775644"/>
<rect x="20" y="14" width="1" height="1" fill="#6B4C3E"/>
<rect x="0" y="15" width="3" height="1" fill="#CBA85C"/>
<rect x="3" y="15" width="1" height="1" fill="#BA9552"/>
<rect x="4" y="15" width="1" height="1" fill="#A58348"/>
<rect x="5" y="15" width="2" height="1" fill="#C29C58"/>
<rect x="7" y="15" width="1" height="1" fill="#BA9552"/>
<rect x="8" y="15" width="3" height="1" fill="#C29C58"/>
<rect x="11" y="15" width="3" height="1" fill="#BA9552"/>
<rect x="16" y="15" width="1" height="1" fill="#7D5B46"/>
<rect x="17" y="15" width="1" height="1" fill="#7B5844"/>
<rect x="18" y="15" width="1" height="1" fill="#775644"/>
<rect x="19" y="15" width="2" height="1" fill="#6B4C3E"/>
<rect x="0" y="16" width="2" height="1" fill="#EAD28B"/>
<rect x="2" y="16" width="2" height="1" fill="#CBA85C"/>
<rect x="4" y="16" width="2" height="1" fill="#BA9552"/>
<rect x="6" y="16" width="3" height="1" fill="#CBA85C"/>
<rect x="9" y="16" width="1" height="1" fill="#BA9552"/>
<rect x="10" y="16" width="3" height="1" fill="#C29C58"/>
<rect x="13" y="16" width="2" height="1" fill="#BA9552"/>
<rect x="15" y="16" width="1" height="1" fill="#A58348"/>
<rect x="16" y="16" width="1" height="1" fill="#775644"/>
<rect x="17" y="16" width="1" height="1" fill="#7B5844"/>
<rect x="18" y="16" width="1" height="1" fill="#775644"/>
<rect x="19" y="16" width="2" height="1" fill="#6B4C3E"/>
<rect x="0" y="17" width="5" height="1" fill="#CBA85C"/>
<rect x="5" y="17" width="1" height="1" fill="#BA9552"/>
<rect x="6" y="17" width="3" height="1" fill="#EAD28B"/>
<rect x="9" y="17" width="4" height="1" fill="#C29C58"/>
<rect x="13" y="17" width="2" height="1" fill="#BA9552"/>
<rect x="15" y="17" width="1" height="1" fill="#A58348"/>
<rect x="16" y="17" width="2" height="1" fill="#7B5844"/>
<rect x="18" y="17" width="1" height="1" fill="#775644"/>
<rect x="19" y="17" width="2" height="1" fill="#6B4C3E"/>
<rect x="1" y="18" width="2" height="1" fill="#CBA85C"/>
<rect x="3" y="18" width="1" height="1" fill="#C29C58"/>
<rect x="5" y="18" width="1" height="1" fill="#A58348"/>
<rect x="6" y="18" width="1" height="1" fill="#CBA85C"/>
<rect x="7" y="18" width="1" height="1" fill="#EAD28B"/>
<rect x="8" y="18" width="1" height="1" fill="#CBA85C"/>
<rect x="9" y="18" width="1" height="1" fill="#BA9552"/>
<rect x="10" y="18" width="5" height="1" fill="#C29C58"/>
<rect x="15" y="18" width="1" height="1" fill="#A58348"/>
<rect x="16" y="18" width="1" height="1" fill="#7D5B46"/>
<rect x="17" y="18" width="1" height="1" fill="#7B5844"/>
<rect x="18" y="18" width="1" height="1" fill="#775644"/>
<rect x="19" y="18" width="2" height="1" fill="#6B4C3E"/>
<rect x="1" y="19" width="1" height="1" fill="#CBA85C"/>
<rect x="5" y="19" width="1" height="1" fill="#A58348"/>
<rect x="6" y="19" width="1" height="1" fill="#CBA85C"/>
<rect x="7" y="19" width="1" height="1" fill="#EAD28B"/>
<rect x="8" y="19" width="1" height="1" fill="#CBA85C"/>
<rect x="9" y="19" width="6" height="1" fill="#C29C58"/>
<rect x="15" y="19" width="1" height="1" fill="#A58348"/>
<rect x="16" y="19" width="1" height="1" fill="#775644"/>
<rect x="17" y="19" width="1" height="1" fill="#6B4C3E"/>
<rect x="18" y="19" width="1" height="1" fill="#775644"/>
<rect x="19" y="19" width="1" height="1" fill="#6B4C3E"/>
<rect x="5" y="20" width="2" height="1" fill="#A58348"/>
<rect x="7" y="20" width="2" height="1" fill="#EAD28B"/>
<rect x="9" y="20" width="1" height="1" fill="#BA9552"/>
<rect x="10" y="20" width="4" height="1" fill="#C29C58"/>
<rect x="14" y="20" width="1" height="1" fill="#CBA85C"/>
<rect x="15" y="20" width="1" height="1" fill="#A58348"/>
<rect x="16" y="20" width="3" height="1" fill="#6B4C3E"/>
<rect x="3" y="21" width="2" height="1" fill="#BA9552"/>
<rect x="5" y="21" width="2" height="1" fill="#A58348"/>
<rect x="7" y="21" width="1" height="1" fill="#BA9552"/>
<rect x="8" y="21" width="1" height="1" fill="#EAD28B"/>
<rect x="9" y="21" width="1" height="1" fill="#BA9552"/>
<rect x="10" y="21" width="5" height="1" fill="#C29C58"/>
<rect x="15" y="21" width="1" height="1" fill="#BA9552"/>
<rect x="4" y="22" width="3" height="1" fill="#A58348"/>
<rect x="7" y="22" width="2" height="1" fill="#BA9552"/>
<rect x="9" y="22" width="5" height="1" fill="#C29C58"/>
<rect x="14" y="22" width="1" height="1" fill="#CBA85C"/>
<rect x="15" y="22" width="1" height="1" fill="#C29C58"/>
<rect x="6" y="23" width="8" height="1" fill="#C29C58"/>
<rect x="14" y="23" width="1" height="1" fill="#CBA85C"/>
</svg>
